<?xml version="1.0" encoding="UTF-8" standalone="no"?>
<svg
        xmlns="http://www.w3.org/2000/svg"
        id="svg146"
        version="1.1"
        viewBox="0 0 81 80"
        height="80"
        width="81">
  <metadata
     id="metadata150">
      image/svg+xml
  </metadata>
    <defs
     id="defs124">
    <linearGradient
       gradientUnits="userSpaceOnUse"
       gradientTransform="scale(0.89792871,1.1136742)"
       y2="40.749963"
       y1="40.749963"
       x2="33.427932"
       x1="-0.01035717"
       id="pluginsdk_80-a">
      <stop
         id="stop54"
         stop-color="#F97A12"
         offset="25.81%" />
      <stop
         id="stop56"
         stop-color="#B07B58"
         offset="45.91%" />
      <stop
         id="stop58"
         stop-color="#577BAE"
         offset="72.41%" />
      <stop
         id="stop60"
         stop-color="#1E7CE5"
         offset="91.05%" />
      <stop
         id="stop62"
         stop-color="#087CFA"
         offset="100%" />
    </linearGradient>
    <linearGradient
       gradientUnits="userSpaceOnUse"
       gradientTransform="scale(0.8201327,1.2193149)"
       y2="40.733696"
       y1="18.115879"
       x2="68.705272"
       x1="40.008239"
       id="pluginsdk_80-b">
      <stop
         id="stop65"
         stop-color="#F97A12"
         offset="0%" />
      <stop
         id="stop67"
         stop-color="#CB7A3E"
         offset="7.18%" />
      <stop
         id="stop69"
         stop-color="#9E7B6A"
         offset="15.41%" />
      <stop
         id="stop71"
         stop-color="#757B91"
         offset="24.2%" />
      <stop
         id="stop73"
         stop-color="#537BB1"
         offset="33.44%" />
      <stop
         id="stop75"
         stop-color="#387CCC"
         offset="43.24%" />
      <stop
         id="stop77"
         stop-color="#237CE0"
         offset="53.81%" />
      <stop
         id="stop79"
         stop-color="#147CEF"
         offset="65.52%" />
      <stop
         id="stop81"
         stop-color="#0B7CF7"
         offset="79.25%" />
      <stop
         id="stop83"
         stop-color="#087CFA"
         offset="100%" />
    </linearGradient>
    <linearGradient
       gradientUnits="userSpaceOnUse"
       gradientTransform="scale(0.82572282,1.2110601)"
       y2="-2.393176"
       y1="35.495809"
       x2="55.996877"
       x1="64.109042"
       id="pluginsdk_80-c">
      <stop
         id="stop86"
         stop-color="#FE315D"
         offset="0%" />
      <stop
         id="stop88"
         stop-color="#CB417E"
         offset="7.84%" />
      <stop
         id="stop90"
         stop-color="#9E4E9B"
         offset="16.01%" />
      <stop
         id="stop92"
         stop-color="#755BB4"
         offset="24.74%" />
      <stop
         id="stop94"
         stop-color="#5365CA"
         offset="33.92%" />
      <stop
         id="stop96"
         stop-color="#386DDB"
         offset="43.65%" />
      <stop
         id="stop98"
         stop-color="#2374E9"
         offset="54.14%" />
      <stop
         id="stop100"
         stop-color="#1478F3"
         offset="65.76%" />
      <stop
         id="stop102"
         stop-color="#0B7BF8"
         offset="79.4%" />
      <stop
         id="stop104"
         stop-color="#087CFA"
         offset="100%" />
    </linearGradient>
    <linearGradient
       gradientUnits="userSpaceOnUse"
       gradientTransform="scale(0.95197164,1.0504515)"
       y2="80.800917"
       y1="14.694787"
       x2="57.18166"
       x1="15.433212"
       id="pluginsdk_80-d">
      <stop
         id="stop107"
         stop-color="#FE315D"
         offset="0%" />
      <stop
         id="stop109"
         stop-color="#F63462"
         offset="4.023%" />
      <stop
         id="stop111"
         stop-color="#DF3A71"
         offset="10.37%" />
      <stop
         id="stop113"
         stop-color="#C24383"
         offset="16.67%" />
      <stop
         id="stop115"
         stop-color="#AD4A91"
         offset="29.12%" />
      <stop
         id="stop117"
         stop-color="#755BB4"
         offset="54.98%" />
      <stop
         id="stop119"
         stop-color="#1D76ED"
         offset="91.75%" />
      <stop
         id="stop121"
         stop-color="#087CFA"
         offset="100%" />
    </linearGradient>
  </defs>
  <g
          transform="translate(8,8)"
     id="g134"
     style="fill:none">
    <path
       fill="url(#pluginsdk_80-a)"
       d="M 6.0875457,64 0,59.100095 V 26.791896 L 30,38.670337 10.140397,64 Z"
       id="path126"
       style="fill:url(#pluginsdk_80-a)" />
    <path
       fill="url(#pluginsdk_80-b)"
       d="M 20.952471,64 52.274092,31.915909 37.670883,0.46019481 38.058094,0 H 64 v 64 z"
       id="path128"
       style="fill:url(#pluginsdk_80-b)" />
    <path
       fill="url(#pluginsdk_80-c)"
       d="M 34.412378,0 H 64 V 28.036623 L 49.007834,44 34,0.44696173 Z"
       id="path130"
       style="fill:url(#pluginsdk_80-c)" />
    <path
       fill="url(#pluginsdk_80-d)"
       d="M 30.335877,64 H 0 V 49.970955 L 6.2343782,29.283052 0,27.159609 V 0 H 39.469724 L 58,21.38448 30.538132,63.925909 Z"
       id="path132"
       style="fill:url(#pluginsdk_80-d)" />
  </g>
  <rect
     y="12"
     x="12"
     id="rect136"
     fill="#000000"
     height="56"
     width="56"
     style="fill-rule:nonzero" />
  <text
     xml:space="preserve"
     style="font-size:13.1394px;line-height:1.25;font-family:sans-serif;letter-spacing:0px;word-spacing:0px;stroke-width:0.175974"
     x="25.323608"
     y="27.05006"
     id="text18"><tspan
       id="tspan16"
       x="25.323608"
       y="27.05006"
       style="fill:#5fbcd3;font-style:normal;font-variant:normal;font-weight:bold;font-stretch:normal;font-size:13.1394px;font-family:sans-serif;-inkscape-font-specification:'sans-serif Bold';fill:#87cdde;stroke-width:0.175974"
       dx="0"
       dy="0"
       rotate="0 0 0 0">CRX</tspan></text>
  <path
     style="fill:#5fbcd3;stroke-width:0.00311055"
     id="path38"
     d="m 52.832473,31.082657 c -0.142463,0.04324 -0.383531,0.154594 -0.525993,0.241378 -0.148372,0.08678 -2.629655,2.52452 -5.519352,5.414218 l -5.253401,5.259311 -0.265952,-0.204052 c -0.352736,-0.265953 -0.649793,-0.36518 -1.113886,-0.36518 -0.420857,0 -0.556787,0.0619 -1.540653,0.643574 -1.986084,1.169565 -4.721187,1.819046 -7.171364,1.707688 -1.608775,-0.07434 -2.914271,-0.315408 -4.584945,-0.847624 -1.417165,-0.45165 -1.485285,-0.408414 -1.571758,0.952761 -0.278394,4.213856 1.602553,8.699885 5.135822,12.226623 2.672892,2.672892 5.748288,4.306552 8.452285,4.498473 0.730046,0.05567 1.583892,-0.06812 1.782033,-0.247603 0.105136,-0.09269 0.587893,-1.392276 1.850153,-4.956342 0.934407,-2.65454 1.980173,-5.618268 2.320468,-6.583782 0.550565,-1.553095 0.624909,-1.812826 0.624909,-2.171782 0,-0.482758 -0.179481,-0.903304 -0.525994,-1.237376 l -0.216494,-0.210273 5.315299,-5.327432 c 5.705052,-5.705052 5.568812,-5.556368 5.692611,-6.317519 0.148372,-0.965201 -0.358957,-1.942846 -1.225246,-2.357482 -0.421167,-0.198142 -1.231774,-0.260042 -1.658542,-0.117579 z m 1.002218,1.033324 c 0.321629,0.09269 0.674367,0.451651 0.779502,0.791945 0.09269,0.309499 0.01244,0.723824 -0.197829,0.990087 -0.06812,0.08678 -2.468842,2.481281 -5.327432,5.32121 l -5.197722,5.160396 -0.798166,-0.798166 -0.798167,-0.798166 5.302858,-5.296637 c 4.640624,-4.634403 5.339875,-5.309081 5.556369,-5.364448 0.334072,-0.08679 0.395972,-0.08679 0.680587,-0.0063 z M 40.500404,42.61003 c 0.272172,0.185698 3.718657,3.632183 3.817884,3.817572 0.05568,0.105137 0.07434,0.24138 0.04946,0.340294 -0.07434,0.297057 -1.101445,3.192975 -1.157123,3.254564 -0.03111,0.03701 -1.231153,-1.120107 -3.081306,-2.969949 -1.664454,-1.664453 -3.007277,-3.04429 -2.982391,-3.062954 0.02488,-0.01866 0.210271,-0.105135 0.414634,-0.1857 0.532216,-0.210274 1.50986,-0.699251 2.029633,-1.020882 0.476224,-0.302655 0.674055,-0.33376 0.909212,-0.172945 z m -12.022571,1.899611 c 2.289362,0.482756 4.708744,0.488976 6.812406,0.01244 l 0.624909,-0.136241 3.440264,3.440265 3.440263,3.440262 -1.429295,4.052731 c -0.791945,2.22124 -1.466312,4.083832 -1.503638,4.13329 -0.05568,0.06812 -0.228936,0.08056 -0.847624,0.04948 -0.427078,-0.01869 -0.88495,-0.06812 -1.020881,-0.105132 -0.136243,-0.03079 -0.352737,-0.09269 -0.482757,-0.13002 l -0.235157,-0.06192 0.179478,-0.22894 c 0.878729,-1.113886 2.054204,-3.44648 2.079089,-4.108715 0.0062,-0.315411 -0.210272,-0.544345 -0.519772,-0.544345 -0.340294,0 -0.464094,0.13002 -0.649793,0.693028 -0.334073,1.020881 -1.305496,2.753452 -1.998526,3.570285 l -0.179478,0.216488 -0.334073,-0.142463 c -0.371399,-0.160813 -1.484974,-0.785719 -1.89961,-1.070336 l -0.260042,-0.179475 0.686808,-0.662237 c 1.070339,-1.027101 2.159341,-2.462618 2.159341,-2.846148 0,-0.222716 -0.32163,-0.507332 -0.56923,-0.507332 -0.265951,0.0062 -0.340293,0.06812 -0.674365,0.587895 -0.395973,0.606246 -1.144682,1.484974 -1.775812,2.079088 -0.748708,0.699251 -0.736266,0.693031 -1.169565,0.327853 -0.198141,-0.167038 -0.705472,-0.63735 -1.126017,-1.051987 l -0.767372,-0.748708 0.661924,-0.315411 c 0.81683,-0.389752 1.639569,-0.884949 1.924495,-1.150902 0.272173,-0.260041 0.297057,-0.581672 0.0619,-0.810607 -0.2476,-0.247599 -0.464094,-0.204052 -1.132239,0.222716 -0.662236,0.432987 -2.072868,1.126016 -2.221241,1.09522 -0.1238,-0.02488 -0.816829,-0.983864 -1.311717,-1.812824 -0.532215,-0.897083 -0.563009,-0.810608 0.284615,-0.853844 1.256038,-0.0619 2.685334,-0.358959 2.932933,-0.606559 0.154595,-0.154593 0.154595,-0.550566 0,-0.742486 -0.148372,-0.1857 -0.389751,-0.179478 -1.336601,0.03111 -0.581672,0.13002 -0.971424,0.173257 -1.800695,0.204364 l -1.058208,0.03702 -0.191921,-0.488977 c -0.228936,-0.606245 -0.482756,-1.404413 -0.544656,-1.720131 -0.03701,-0.228939 -0.03701,-0.24138 0.105136,-0.204052 1.107666,0.272173 4.294109,0.160815 4.943902,-0.173259 0.358957,-0.185698 0.377309,-0.668144 0.04324,-0.921965 -0.160815,-0.117579 -0.167037,-0.117579 -0.798166,0 -0.804387,0.148372 -3.322686,0.160815 -4.071393,0.01866 -0.451652,-0.08647 -0.457873,-0.09269 -0.507331,-0.303279 -0.06096,-0.321629 -0.135308,-1.819046 -0.09207,-1.992305 l 0.04324,-0.154593 0.668146,0.204053 c 0.365489,0.111667 1.00284,0.272483 1.417165,0.358956 z" />
</svg>
