<?xml version="1.0" encoding="UTF-8" standalone="no"?>
<svg
   xmlns:dc="http://purl.org/dc/elements/1.1/"
   xmlns:cc="http://creativecommons.org/ns#"
   xmlns:rdf="http://www.w3.org/1999/02/22-rdf-syntax-ns#"
   xmlns:svg="http://www.w3.org/2000/svg"
   xmlns="http://www.w3.org/2000/svg"
   xmlns:sodipodi="http://sodipodi.sourceforge.net/DTD/sodipodi-0.dtd"
   xmlns:inkscape="http://www.inkscape.org/namespaces/inkscape"
   inkscape:version="1.0 (4035a4fb49, 2020-05-01)"
   sodipodi:docname="pluginIcon_dark.svg"
   width="40"
   height="40"
   viewBox="0 0 40 40"
   version="1.1"
   id="svg146">
  <sodipodi:namedview
     inkscape:current-layer="svg146"
     inkscape:window-maximized="1"
     inkscape:window-y="-8"
     inkscape:window-x="-8"
     inkscape:cy="24.175582"
     inkscape:cx="18.720157"
     inkscape:zoom="15.061374"
     showgrid="true"
     id="namedview51"
     inkscape:window-height="1014"
     inkscape:window-width="1920"
     inkscape:pageshadow="2"
     inkscape:pageopacity="0"
     guidetolerance="10"
     gridtolerance="10"
     objecttolerance="10"
     borderopacity="1"
     bordercolor="#666666"
     pagecolor="#ffffff">
    <inkscape:grid
       id="grid59"
       type="xygrid" />
  </sodipodi:namedview>
  <metadata
     id="metadata150">
      image/svg+xml
  <rdf:RDF>
  <cc:Work
     rdf:about="">
    <dc:format>image/svg+xml</dc:format>
    <dc:type
       rdf:resource="http://purl.org/dc/dcmitype/StillImage" />
    <dc:title></dc:title>
  </cc:Work>
</rdf:RDF>
</metadata>
  <defs
     id="defs124">
    <linearGradient
       id="pluginsdk_80-a"
       x1="-0.01035717"
       x2="33.427933"
       y1="40.749962"
       y2="40.749962"
       gradientTransform="scale(0.89792871,1.1136742)"
       gradientUnits="userSpaceOnUse">
      <stop
         offset="25.81%"
         stop-color="#F97A12"
         id="stop54" />
      <stop
         offset="45.91%"
         stop-color="#B07B58"
         id="stop56" />
      <stop
         offset="72.41%"
         stop-color="#577BAE"
         id="stop58" />
      <stop
         offset="91.05%"
         stop-color="#1E7CE5"
         id="stop60" />
      <stop
         offset="100%"
         stop-color="#087CFA"
         id="stop62" />
    </linearGradient>
    <linearGradient
       id="pluginsdk_80-b"
       x1="40.00824"
       x2="68.705269"
       y1="18.115879"
       y2="40.733696"
       gradientTransform="scale(0.8201327,1.2193149)"
       gradientUnits="userSpaceOnUse">
      <stop
         offset="0%"
         stop-color="#F97A12"
         id="stop65" />
      <stop
         offset="7.18%"
         stop-color="#CB7A3E"
         id="stop67" />
      <stop
         offset="15.41%"
         stop-color="#9E7B6A"
         id="stop69" />
      <stop
         offset="24.2%"
         stop-color="#757B91"
         id="stop71" />
      <stop
         offset="33.44%"
         stop-color="#537BB1"
         id="stop73" />
      <stop
         offset="43.24%"
         stop-color="#387CCC"
         id="stop75" />
      <stop
         offset="53.81%"
         stop-color="#237CE0"
         id="stop77" />
      <stop
         offset="65.52%"
         stop-color="#147CEF"
         id="stop79" />
      <stop
         offset="79.25%"
         stop-color="#0B7CF7"
         id="stop81" />
      <stop
         offset="100%"
         stop-color="#087CFA"
         id="stop83" />
    </linearGradient>
    <linearGradient
       id="pluginsdk_80-c"
       x1="64.109039"
       x2="55.996876"
       y1="35.495808"
       y2="-2.3931761"
       gradientTransform="scale(0.82572282,1.2110601)"
       gradientUnits="userSpaceOnUse">
      <stop
         offset="0%"
         stop-color="#FE315D"
         id="stop86" />
      <stop
         offset="7.84%"
         stop-color="#CB417E"
         id="stop88" />
      <stop
         offset="16.01%"
         stop-color="#9E4E9B"
         id="stop90" />
      <stop
         offset="24.74%"
         stop-color="#755BB4"
         id="stop92" />
      <stop
         offset="33.92%"
         stop-color="#5365CA"
         id="stop94" />
      <stop
         offset="43.65%"
         stop-color="#386DDB"
         id="stop96" />
      <stop
         offset="54.14%"
         stop-color="#2374E9"
         id="stop98" />
      <stop
         offset="65.76%"
         stop-color="#1478F3"
         id="stop100" />
      <stop
         offset="79.4%"
         stop-color="#0B7BF8"
         id="stop102" />
      <stop
         offset="100%"
         stop-color="#087CFA"
         id="stop104" />
    </linearGradient>
    <linearGradient
       id="pluginsdk_80-d"
       x1="15.433212"
       x2="57.18166"
       y1="14.694787"
       y2="80.800919"
       gradientTransform="scale(0.95197164,1.0504515)"
       gradientUnits="userSpaceOnUse">
      <stop
         offset="0%"
         stop-color="#FE315D"
         id="stop107" />
      <stop
         offset="4.023%"
         stop-color="#F63462"
         id="stop109" />
      <stop
         offset="10.37%"
         stop-color="#DF3A71"
         id="stop111" />
      <stop
         offset="16.67%"
         stop-color="#C24383"
         id="stop113" />
      <stop
         offset="29.12%"
         stop-color="#AD4A91"
         id="stop115" />
      <stop
         offset="54.98%"
         stop-color="#755BB4"
         id="stop117" />
      <stop
         offset="91.75%"
         stop-color="#1D76ED"
         id="stop119" />
      <stop
         offset="100%"
         stop-color="#087CFA"
         id="stop121" />
    </linearGradient>
  </defs>
  <rect
     style="fill-rule:nonzero;stroke-width:0.642857;fill:#ececec"
     width="36"
     height="36"
     fill="#000000"
     id="rect136"
     x="2"
     y="2" />
  <text
     id="text18"
     y="11.675038"
     x="10.565177"
     style="font-size:8.44676px;line-height:1.25;font-family:sans-serif;letter-spacing:0px;word-spacing:0px;stroke-width:0.113126"
     xml:space="preserve"><tspan
       rotate="0 0 0 0"
       dy="0"
       dx="0"
       style="fill:#87cdde;font-style:normal;font-variant:normal;font-weight:bold;font-stretch:normal;font-size:8.44676px;font-family:sans-serif;-inkscape-font-specification:'sans-serif Bold';fill:#87cdde;stroke-width:0.113126"
       y="11.675038"
       x="10.565177"
       id="tspan16">CRX</tspan></text>
  <path
     d="m 28.249447,14.267422 c -0.09158,0.0278 -0.246556,0.09938 -0.338139,0.155172 -0.09538,0.05579 -1.690492,1.622906 -3.548154,3.480569 l -3.377187,3.380985 -0.170969,-0.131176 c -0.226759,-0.17097 -0.417724,-0.234759 -0.716069,-0.234759 -0.270551,0 -0.357935,0.03979 -0.99042,0.413726 -1.276769,0.751864 -3.035049,1.169387 -4.610163,1.0978 -1.034212,-0.04779 -1.87346,-0.202762 -2.947464,-0.544901 -0.911035,-0.290347 -0.954826,-0.262552 -1.010416,0.612489 -0.178968,2.708907 1.030212,5.592783 3.3016,7.859972 1.718287,1.718288 3.695328,2.768498 5.433611,2.891875 0.469316,0.03579 1.018217,-0.04379 1.145593,-0.159173 0.06759,-0.05959 0.377931,-0.895035 1.189384,-3.18622 0.60069,-1.70649 1.272968,-3.611744 1.491729,-4.232431 0.353935,-0.998418 0.401728,-1.165388 0.401728,-1.396146 0,-0.310344 -0.115381,-0.580695 -0.338139,-0.795456 l -0.139175,-0.135175 3.416978,-3.424778 c 3.667533,-3.667533 3.57995,-3.571951 3.659535,-4.061262 0.09538,-0.620486 -0.230758,-1.248973 -0.787658,-1.515524 -0.27075,-0.127377 -0.791854,-0.16717 -1.066205,-0.07559 z m 0.644283,0.66428 c 0.206761,0.05959 0.433521,0.290347 0.501108,0.509107 0.05959,0.198964 0.008,0.465316 -0.127176,0.636485 -0.04379,0.05579 -1.587112,1.595109 -3.424777,3.420778 l -3.341393,3.317397 -0.513107,-0.513106 -0.513107,-0.513107 3.40898,-3.404981 c 2.983258,-2.979259 3.432777,-3.412981 3.571952,-3.448574 0.21476,-0.05579 0.254553,-0.05579 0.43752,-0.004 z m -8.572042,6.746174 c 0.174968,0.119378 2.390565,2.334975 2.454354,2.454154 0.03579,0.06759 0.04779,0.155173 0.0318,0.21876 -0.04779,0.190965 -0.708072,2.052627 -0.743865,2.09222 -0.02,0.02379 -0.791455,-0.720069 -1.980839,-1.909253 -1.070007,-1.070006 -1.93325,-1.957044 -1.917252,-1.969042 0.01599,-0.012 0.135174,-0.06759 0.266551,-0.119378 0.342138,-0.135177 0.970624,-0.449519 1.304764,-0.656282 0.306144,-0.194564 0.433321,-0.21456 0.584493,-0.111179 z m -7.728795,1.221179 c 1.471732,0.310343 3.027049,0.314342 4.379403,0.008 l 0.401728,-0.08758 2.211598,2.211599 2.211598,2.211597 -0.918833,2.605327 c -0.509107,1.42794 -0.942629,2.625321 -0.966624,2.657115 -0.0358,0.04379 -0.147174,0.05179 -0.544902,0.03181 -0.27455,-0.01201 -0.568896,-0.04379 -0.65628,-0.06759 -0.08759,-0.01979 -0.22676,-0.05959 -0.310344,-0.08358 l -0.151172,-0.03981 0.115378,-0.147176 c 0.564898,-0.716069 1.32056,-2.215594 1.336558,-2.641316 0.004,-0.202765 -0.135175,-0.349936 -0.33414,-0.349936 -0.21876,0 -0.298346,0.08358 -0.417724,0.445518 -0.214761,0.65628 -0.839247,1.770076 -1.284766,2.295183 l -0.115379,0.139171 -0.214761,-0.09158 c -0.238757,-0.10338 -0.954626,-0.505105 -1.221178,-0.688073 l -0.16717,-0.115377 0.441519,-0.425723 c 0.688076,-0.66028 1.388148,-1.583112 1.388148,-1.829667 0,-0.143175 -0.206762,-0.326142 -0.365933,-0.326142 -0.170969,0.004 -0.21876,0.04379 -0.433521,0.377933 -0.254554,0.389729 -0.735867,0.954626 -1.141593,1.336556 -0.481312,0.449519 -0.473314,0.44552 -0.751863,0.210763 -0.127377,-0.107382 -0.453518,-0.409725 -0.723868,-0.676278 l -0.493311,-0.481312 0.425523,-0.202764 c 0.525105,-0.250555 1.054008,-0.568896 1.237175,-0.739866 0.174968,-0.167169 0.190965,-0.373932 0.03979,-0.521104 -0.159172,-0.159171 -0.298346,-0.131176 -0.727868,0.143174 -0.425723,0.278349 -1.332558,0.723868 -1.427941,0.70407 -0.07958,-0.01599 -0.525104,-0.632484 -0.843246,-1.165386 -0.342139,-0.576697 -0.361935,-0.521106 0.182966,-0.5489 0.807453,-0.03979 1.726287,-0.23076 1.885457,-0.389931 0.09938,-0.09938 0.09938,-0.353935 0,-0.477312 -0.09538,-0.119379 -0.250554,-0.115379 -0.859243,0.02 -0.373932,0.08358 -0.624487,0.111379 -1.15759,0.131377 l -0.680276,0.0238 -0.123378,-0.314342 c -0.147173,-0.389729 -0.310343,-0.902837 -0.350136,-1.105799 -0.02379,-0.147175 -0.02379,-0.155172 0.06759,-0.131176 0.712071,0.174969 2.760499,0.103381 3.178223,-0.111381 0.230758,-0.119377 0.242556,-0.429521 0.0278,-0.592691 -0.103381,-0.07559 -0.107381,-0.07559 -0.513107,0 -0.517106,0.09538 -2.136012,0.103381 -2.617324,0.012 -0.290347,-0.05559 -0.294347,-0.05959 -0.326141,-0.194965 -0.03919,-0.206761 -0.08698,-1.169386 -0.05919,-1.280767 l 0.0278,-0.09938 0.429523,0.131176 c 0.234957,0.07179 0.644683,0.175168 0.911034,0.230758 z"
     id="path38"
     style="fill:#5fbcd3;stroke-width:0.00199964" />
</svg>
